HIERARCHY
ROOT ui
{
	 OFFSET 0 0 0
	 CHANNELS 3 XPosition YPosition Z Position
	 EndSite
	 {
	 OFFSET 0 -1 0
	 }
}
ROOT li
{
	 OFFSET 0 0 0
	 CHANNELS 3 XPosition YPosition Z Position
	 EndSite
	 {
	 OFFSET 0 -1 0
	 }
}
ROOT ul
{
	 OFFSET 0 0 0
	 CHANNELS 3 XPosition YPosition Z Position
	 EndSite
	 {
	 OFFSET 0 -1 0
	 }
}
ROOT ll
{
	 OFFSET 0 0 0
	 CHANNELS 3 XPosition YPosition Z Position
	 EndSite
	 {
	 OFFSET 0 -1 0
	 }
}
ROOT tt
{
	 OFFSET 0 0 0
	 CHANNELS 3 XPosition YPosition Z Position
	 EndSite
	 {
	 OFFSET 0 -1 0
	 }
}
ROOT tb
{
	 OFFSET 0 0 0
	 CHANNELS 3 XPosition YPosition Z Position
	 EndSite
	 {
	 OFFSET 0 -1 0
	 }
}
ROOT td
{
	 OFFSET 0 0 0
	 CHANNELS 3 XPosition YPosition Z Position
	 EndSite
	 {
	 OFFSET 0 -1 0
	 }
}
ROOT v
{
	 OFFSET 0 0 0
	 CHANNELS 3 XPosition YPosition Z Position
	 EndSite
	 {
	 OFFSET 0 -1 0
	 }
}
ROOT bn
{
	 OFFSET 0 0 0
	 CHANNELS 3 XPosition YPosition Z Position
	 EndSite
	 {
	 OFFSET 0 -1 0
	 }
}
MOTION
Frames: 10
Frame Time: 0.002
0.005796909809112549	4.821929931640625E-4	0		0.5722620239257813	-2.6341884765625	0		-1.0309014892578126	-0.02878200149536133	0		-0.7223218994140626	-2.654789306640625	0		1.055646728515625	-1.1236798095703124	0		2.84142822265625	-0.26682171630859375	0		4.5901435546875	-0.13241160583496095	0		5.8831767578125	0.3002846984863281	0		0.010584315299987794	6.01837890625	0		
0.004455053806304931	3.7505099177360533E-4	0		0.5252452392578125	-2.61347607421875	0		-1.032243896484375	-0.028871694564819337	0		-0.7661223754882812	-2.622111328125	0		1.1252020263671876	-1.129088623046875	0		2.85082666015625	-0.28117330932617185	0		4.58469189453125	-0.1385225372314453	0		5.8680234375	0.310330322265625	0		0.008380098342895508	6.02028955078125	0		
0.02916812515258789	-0.001196017026901245	0		0.557700927734375	-2.62719775390625	0		-1.0335087890625	-0.028956708908081056	0		-0.7325040283203125	-2.62683349609375	0		1.0530047607421875	-1.123920654296875	0		2.842885009765625	-0.26319216918945315	0		4.58342529296875	-0.13869093322753906	0		5.87576171875	0.30997991943359376	0		-0.008009947776794434	6.008462890625	0		
0.0020144050121307373	1.8164999783039094E-4	0		0.5305316162109375	-2.624826904296875	0		-1.0387572021484375	-0.032963268280029295	0		-0.7008098754882812	-2.632514404296875	0		1.1196580810546874	-1.133258056640625	0		2.823418701171875	-0.27899276733398437	0		4.5822470703125	-0.13884268188476562	0		5.8614287109375	0.30104864501953127	0		-0.009108980178833008	6.00836962890625	0		
9.346830248832703E-4	9.67869982123375E-5	0		0.56725439453125	-2.63460498046875	0		-1.035765380859375	-0.029110179901123048	0		-0.7392199096679688	-2.64891796875	0		1.056830322265625	-1.11823291015625	0		2.83655126953125	-0.2673636474609375	0		4.58702001953125	-0.1470840301513672	0		5.86420654296875	0.29282986450195314	0		0.00509072208404541	6.02001123046875	0		
0.010991395950317383	0.0018209340572357179	0		0.5522386474609375	-2.635431640625	0		-1.02861767578125	-0.022323720932006835	0		-0.6903370361328125	-2.655893798828125	0		1.1288311767578125	-1.11964208984375	0		2.855277587890625	-0.28382363891601564	0		4.57815087890625	-0.14105441284179687	0		5.873501953125	0.3075207214355469	0		0.02230571746826172	6.027607421875	0		
0.02813458251953125	0.0024275739192962647	0		0.5575677490234375	-2.6236123046875	0		-1.037615478515625	-0.029237764358520508	0		-0.7346731567382813	-2.62516259765625	0		1.0809964599609374	-1.11686279296875	0		2.83876953125	-0.26362005615234374	0		4.59442041015625	-0.13345794677734374	0		5.8806484375	0.30827395629882814	0		0.019506189346313478	6.02957666015625	0		
0.0013735029697418213	0.0028425960540771483	0		0.5547573852539063	-2.62563427734375	0		-1.0383809814453124	-0.02929098701477051	0		-0.7025437622070313	-2.63081494140625	0		1.124111083984375	-1.1237208251953126	0		2.80273681640625	-0.2780488586425781	0		4.57854833984375	-0.13925726318359374	0		5.85774267578125	0.3005976257324219	0		-0.01263267707824707	6.0080859375	0		
-0.006413588047027588	-0.004076504230499268	0		0.5618927612304687	-2.63682568359375	0		-1.0431141357421876	-0.03326406478881836	0		-0.7761409301757812	-2.626537109375	0		1.117576904296875	-1.1166614990234376	0		2.839141845703125	-0.27477102661132813	0		4.590630859375	-0.15354249572753906	0		5.860935546875	0.29247357177734373	0		0.001927075982093811	6.0197646484375	0		
1.5118899941444396E-4	0.002756985902786255	0		0.5364306030273438	-2.63141015625	0		-1.039603271484375	-0.02937724494934082	0		-0.7407401733398438	-2.629229736328125	0		1.04915576171875	-1.1084649658203125	0		2.843453125	-0.28189453125	0		4.58318017578125	-0.14744760131835938	0		5.86135595703125	0.2914263916015625	0		0.0023201310634613035	6.01770849609375	0		
